<svg version="1.2" xmlns="http://www.w3.org/2000/svg" viewBox="0 0 800 800" width="800" height="800">
	<style>
		.s0 { fill: #ffffff } 
	</style>
	<g id="Folder 1">
		<path class="s0" d="m343.87 315.84c7.69-14.4 16.11-20.74 31.6-26.6 33.31-12.56 49.05-37.21 71.87-62.35 14.52 10.25 14.64 30.02 38.56 28.07v26.6l7.68 0.34c45.64-17.57 91.15-36.85 130.07-66.62 58.93-44.9 64.54-61.01 99.2-122.01l2.44-3.18c-0.74 17.21-7.69 33.31-15.13 48.69-37.22 77.84-96.03 122.38-179.12 142.39-15.13 3.53-32.21 3.9-45.88 10.86 1.71 11.95 16.11 22.08 16.11 28.06 0 4.15-6.71 8.78-9.15 10.49-13.67-15.74-19.64-23.55-27.7-26.96-9.27-4.27-77.96-7.81-120.55 12.22zm168.26 313.45c-23.18 0-78.21 11.6-97.49 24.16l8.42 55.03c43.56 7.44 85.53 4.39 129.33-11.96-5.85-12.2-28.67-67.23-40.26-67.23zm142.02-75.4c-41.36-69.43-91.87-144.46-183.02-140.93l-0.36-7.32c-1.34-16.47 40.02 3.91 42.82-37.82l-17.57 8.78c-24.15-55.76-10.49-66.25-79.91-66.25-17.94 0-32.58 2.08-50.52 5.61 3.54 22.7 2.69 44.78-13.3 61.38l23.8 6.71c-2.08 3.9-3.54 7.68-3.54 11.95 0 25.63 52.22 3.54 52.22 41 0 22.45-44.9 73.33-66.99 73.33-9.76 0-65.52-61.01-65.15-73.33l0.36-5.61 63.82-14.03c15.86-3.17 15-27.7-3.54-27.7-4.52 0-52.59 11.23-60.28 12.93-2.44-6.34-9.15-17.2-16.83-17.2-3.91 0-7.69 3.9-11.59 4.88-11.23 3.17-37.83 3.54-26.24 24.52l-170.33 37.1c-6.71 1.34-10.86 7.68-10.86 14.39 0 7.32 6.71 13.3 14.03 13.3 9.77 0 160.21-34.65 179.85-39.28 3.17 3.9 5.61 7.68 9.52 10.49 24.52 17.57 72.96 104.81 93.22 104.81 29.4 0 70.76-27.33 86.99-51.13 3.91-5.24 8.42-9.15 15.13-8.41 0.73 16.83-38.55 41.72-40.26 53.31-1.71 12.45-1.22 42.95-0.37 50.15 32.58 9.89 63.45-4.39 95.05-3.53 5.25-25.63 12.93-51.13 11.96-77.48l-0.37-11.59c-1.71-41.73-13.3-46.98-42.46-71.5-1.34-1.35-3.17-3.18-4.51-4.88 2.68-1.71 1.34-1.22 5.61-2.08 107.98 0 68.69 224.02 136.04 280.51 40.39-18.3 88.46-34.04 126.29-57.59-35.39-31.24-64.18-55.76-88.71-97.49zm-323.21-127.26l29.41 74.67 25.62-16.84-38.19-62.1c0 0-16.84 4.27-16.84 4.27zm395.44-338.95l-0.73 1.34-0.36 1.1 0.73-0.73zm-380.07 300.15c-3.91-2.44-7.69-3.54-12.33-3.54-8.05 0-15.37 3.9-23.54 4.52l2.07 5.97c0 0 33.8-6.95 33.8-6.95zm68.45 222.18v33.31l14.4-4.14-3.54-29.04c0 0-10.86 0-10.86-0.13zm92.85 3.54c0-1.71-0.73-3.9-1.1-5.61-32.7 0-45.02 4.63-72.6 7.69l2.44 15.13c10.98-1.83 71.26-8.06 71.26-17.21z"/>
	</g>
</svg>